# xmcd CD database file
#
# Track frame offsets:
#	187
#	17807
#	36557
#	55757
#	68465
#	85472
#	108497
#	138370
#	154497
#	170340
#	190635
#	208615
#	216507
#
# Disc length: 3119 seconds
#
# Revision: 0
# Processed by: cddbd v1.5.1PL2 Copyright (c) Steve Scherf et al.
# Submitted via: CDex 1.60beta1
#
DISCID=bb0c2d0d
DTITLE=Various Artist - 香港大夜総会 オリジナル・サウンドトラック
DYEAR=1900
DGENRE=Japanese General Soundtrack
TTITLE0=愛の奇跡
TTITLE1=立神のテーマ
TTITLE2=LA VIE EN Rose Part1
TTITLE3=小人と大男のテーマ
TTITLE4=It's Just My Life
TTITLE5=Samba De Mong Kok
TTITLE6=ろう君の初恋
TTITLE7=ランバダ
TTITLE8=タッチ&マギーのテーマ〜愛の奇跡
TTITLE9=夜來香
TTITLE10=チェイス
TTITLE11=LA VIE EN Rose Part2
TTITLE12=愛の奇跡 (中国語バージョン)
EXTD=
EXTT0=
EXTT1=
EXTT2=
EXTT3=
EXTT4=
EXTT5=
EXTT6=
EXTT7=
EXTT8=
EXTT9=
EXTT10=
EXTT11=
EXTT12=
PLAYORDER=
